# xmcd CD database file
#
# Track frame offsets:
#	150
#	35470
#	38735
#	43437
#	177732
#	184055
#	200222
#	208865
#	227200
#	244820
#	257367
#
# Disc length: 3690 seconds
#
# Revision: 1
# Processed by: cddbd v1.5.2PL0 Copyright (c) Steve Scherf et al.
# Submitted via: CDex 1.70beta2
#
DISCID=a70e680b
DTITLE=世界宗教音楽ライブラリー - 日本の神楽
DYEAR=1995
DGENRE=World
TTITLE0=神楽歌　阿知女作法
TTITLE1=神楽歌　三度拍子
TTITLE2=神楽歌　間籍の音取
TTITLE3=神楽歌　榊 本歌～末歌
TTITLE4=神楽歌　お介
TTITLE5=隠岐神楽～注連行事(島根)
TTITLE6=有田神楽(広島)
TTITLE7=岳の山伏神楽～三番叟(岩手)
TTITLE8=ひやま番楽(山形)かけ謡
TTITLE9=ひやま番楽(山形)番楽
TTITLE10=伊勢太神楽(三重)
EXTD=YEAR: 1995
EXTT0=
EXTT1=
EXTT2=
EXTT3=
EXTT4=
EXTT5=
EXTT6=
EXTT7=
EXTT8=
EXTT9=
EXTT10=
PLAYORDER=
